Coordinates
version=1
nRows=14
nColumns=40
inDegrees=yes

Units are S.I. units (second, meters, Newtons, ...)
Angles are in degrees.

endheader
time	pelvis_tilt	pelvis_list	pelvis_rotation	pelvis_tx	pelvis_ty	pelvis_tz	hip_flexion_r	hip_adduction_r	hip_rotation_r	knee_angle_r	knee_angle_r_beta	ankle_angle_r	subtalar_angle_r	mtp_angle_r	hip_flexion_l	hip_adduction_l	hip_rotation_l	knee_angle_l	knee_angle_l_beta	ankle_angle_l	subtalar_angle_l	mtp_angle_l	lumbar_extension	lumbar_bending	lumbar_rotation	arm_flex_r	arm_add_r	arm_rot_r	elbow_flex_r	pro_sup_r	wrist_flex_r	wrist_dev_r	arm_flex_l	arm_add_l	arm_rot_l	elbow_flex_l	pro_sup_l	wrist_flex_l	wrist_dev_l
     54.81228571	     -7.70601661	     -8.15504606	      3.09022089	      1.05667414	      0.91223788	      0.50456013	     -1.68517799	      8.18479530	    -17.16974163	      4.84785145	      4.84785145	     16.18316137	     13.14962931	     -2.15879009	     37.41018918	    -11.28573716	     -0.36134751	     21.20779405	     21.20779405	      3.13333122	    -10.19278542	     11.49578000	    -10.20063983	      7.58105102	      5.80174317	     55.79376559	    -12.51034779	      6.60512117	     94.96346745	     44.53717686	      0.00000000	      0.00000000	    -19.91324431	     -8.72528739	      9.88922478	     33.02405312	     44.14538013	      0.00000000	      0.00000000
     54.82457143	     -7.73956502	     -8.16317457	      2.86729352	      1.05816714	      0.91091685	      0.50261933	     -2.12858498	      7.95752255	    -16.91751302	      5.36077161	      5.36077161	     16.72043580	     13.17180456	     -2.27381981	     37.03539804	    -11.20702383	     -0.60377825	     21.94049786	     21.94049786	      2.43540194	    -10.88078801	     10.90488501	     -9.89892105	      7.66146866	      5.66736895	     55.76175655	    -12.12555382	      6.66049166	     95.64830778	     44.52653623	      0.00000000	      0.00000000	    -20.58818134	     -8.58240945	     10.19719433	     32.96861295	     44.12221777	      0.00000000	      0.00000000
     54.83685714	     -7.78998272	     -8.08558623	      2.66032375	      1.05966534	      0.90994690	      0.50045114	     -2.46600169	      7.58313597	    -16.74420419	      6.03867017	      6.03867017	     17.22728509	     13.18744296	     -2.36622503	     36.62106392	    -11.00467124	     -0.62592655	     22.64302630	     22.64302630	      1.76706751	    -11.78174761	     10.01166651	     -9.61234929	      7.64202994	      5.59604861	     55.39638939	    -12.00484445	      6.60191597	     96.58943195	     44.51312980	      0.00000000	      0.00000000	    -21.15451371	     -8.51413615	     10.52994216	     33.20753678	     44.10209516	      0.00000000	      0.00000000
     54.84914286	     -7.77040277	     -7.96986856	      2.53276101	      1.06113227	      0.90945798	      0.49811677	     -2.93426229	      7.19022700	    -16.58408463	      6.57314466	      6.57314466	     17.54772983	     13.17411245	     -2.48017967	     36.21230752	    -10.77414356	     -0.57884689	     23.49902363	     23.49902363	      1.62900209	    -12.37362064	      9.61561546	     -9.40892570	      7.56337369	      5.45848378	     54.90160540	    -11.97953314	      6.58026713	     97.04317295	     44.50307778	      0.00000000	      0.00000000	    -21.43982335	     -8.45843720	     10.66712901	     33.25883339	     44.09086272	      0.00000000	      0.00000000
     54.86142857	     -7.77641947	     -7.78115048	      2.40325087	      1.06251419	      0.90944114	      0.49560704	     -3.38636478	      6.70002484	    -16.38367741	      7.04651850	      7.04651850	     17.66576334	     13.17474874	     -2.54888946	     35.78527556	    -10.47609781	     -0.51070563	     24.27844106	     24.27844106	      1.77470136	    -12.84623359	      9.33286215	     -9.22576196	      7.39706002	      5.22866308	     54.19752589	    -12.03385962	      6.58156239	     97.28692562	     44.49483416	      0.00000000	      0.00000000	    -21.62978331	     -8.26628965	     10.75966401	     33.28909391	     44.08049503	      0.00000000	      0.00000000
     54.87371429	     -7.97070480	     -7.51160426	      2.32360345	      1.06354846	      0.90950855	      0.49272405	     -3.17608337	      5.92497207	    -16.61284019	      8.39630202	      8.39630202	     17.98686791	     13.30493350	     -2.83130085	     35.51186345	     -9.95092113	     -0.10642462	     24.87347161	     24.87347161	      1.68287461	    -13.94197740	      8.69952878	     -9.00383218	      7.16709533	      5.51459266	     52.62855982	    -12.73694320	      5.78825720	     99.73871200	     44.46295703	      0.00000000	      0.00000000	    -21.51533947	     -8.52507061	     11.29857266	     34.02507869	     44.06047480	      0.00000000	      0.00000000
     54.88600000	     -7.97505715	     -7.34212045	      2.30506088	      1.06476121	      0.91029166	      0.48982387	     -3.57954027	      5.43488782	    -16.47745136	      8.88529187	      8.88529187	     17.85733207	     13.24971761	     -2.85250429	     35.07190684	     -9.62066567	      0.08282188	     25.51310281	     25.51310281	      2.21789106	    -14.26174068	      8.41331223	     -8.90657531	      7.07403531	      5.09294538	     51.66658167	    -12.85970048	      5.80576443	     99.76482615	     44.45976551	      0.00000000	      0.00000000	    -21.35400790	     -8.41825428	     11.37452821	     34.10115399	     44.05705888	      0.00000000	      0.00000000
     54.89828571	     -8.24239662	     -7.04560167	      2.22160033	      1.06548804	      0.91093540	      0.48678333	     -3.10307416	      4.56982926	    -16.59422590	     10.50491715	     10.50491715	     17.94817652	     13.14377808	     -3.31677023	     34.89498305	     -9.12493629	      0.27307587	     26.06929574	     26.06929574	      2.83143343	    -14.82524899	      8.55636799	     -8.63041891	      6.82326512	      5.02666387	     49.98745990	    -13.38107439	      5.32782917	    100.80764141	     44.44666285	      0.00000000	      0.00000000	    -21.03157041	     -8.54118491	     11.57366727	     34.43300848	     44.05701564	      0.00000000	      0.00000000
     54.91057143	     -8.18413252	     -6.90800952	      2.24895726	      1.06654751	      0.91238449	      0.48359846	     -3.46287898	      4.07078134	    -16.54639387	     11.13321952	     11.13321952	     17.62214092	     13.08173838	     -3.35853633	     34.30848145	     -8.79574304	      0.45815889	     26.47717707	     26.47717707	      3.54679227	    -15.10437467	      8.38069160	     -8.69054129	      6.81860631	      4.56094366	     48.61467095	    -13.65007172	      5.28016992	    100.76052062	     44.44645497	      0.00000000	      0.00000000	    -20.61371575	     -8.47434893	     11.61310742	     34.63952689	     44.06237204	      0.00000000	      0.00000000
     54.92285714	     -8.45690674	     -6.55578872	      2.14914320	      1.06716625	      0.91349056	      0.48039785	     -2.77233267	      3.04148212	    -16.76916378	     13.10904405	     13.10904405	     17.45566575	     13.11308757	     -4.28914769	     33.95616269	     -8.23844393	      0.52979372	     26.69444560	     26.69444560	      4.47226911	    -15.51389006	      9.26394059	     -8.47160974	      6.48418431	      5.10121390	     46.25869499	    -14.88543977	      4.05201842	    101.94900983	     44.45443342	      0.00000000	      0.00000000	    -19.88849312	     -8.83102169	     11.69834856	     35.39775039	     44.09178565	      0.00000000	      0.00000000
     54.93514286	     -8.34632497	     -6.51028831	      2.20123319	      1.06814751	      0.91528341	      0.47711473	     -3.01752449	      2.59931983	    -16.71721862	     13.99158455	     13.99158455	     16.95412431	     12.96536122	     -4.42094147	     33.22008547	     -7.99634831	      0.62987947	     26.86644254	     26.86644254	      5.19434840	    -15.63767884	      9.16839096	     -8.61424994	      6.62812055	      4.55283354	     44.51524310	    -15.14720925	      4.01128269	    101.67914596	     44.45950294	      0.00000000	      0.00000000	    -19.32040408	     -8.79604666	     11.70674735	     35.69119703	     44.10361674	      0.00000000	      0.00000000
     54.94742857	     -8.63693974	     -6.14459887	      2.03766763	      1.06873067	      0.91645484	      0.47402676	     -2.06982259	      1.51617437	    -16.67260575	     16.33753306	     16.33753306	     16.53154498	     12.54669275	     -5.63441750	     32.70724849	     -7.51715776	      0.29530872	     26.75210234	     26.75210234	      6.00267402	    -15.73511712	      9.64289217	     -8.29084475	      6.23163445	      4.95172431	     42.21429698	    -16.26645352	      2.98848632	    101.40898409	     44.50049979	      0.00000000	      0.00000000	    -18.54814236	     -9.13896745	     11.53914114	     36.59009446	     44.15424499	      0.00000000	      0.00000000
     54.95971429	     -8.64396329	     -6.00151169	      2.01947984	      1.06937752	      0.91793289	      0.47081952	     -1.70184016	      0.82936058	    -16.47173343	     17.95752691	     17.95752691	     14.79140211	     11.83543896	     -9.64494612	     32.07773033	     -7.17762498	      0.32703819	     26.91361210	     26.91361210	      7.27875294	    -15.66269210	     11.30581089	     -8.44610253	      6.20825452	      5.57519560	     39.09876513	    -17.09445364	      0.50615540	    102.25803323	     44.57706900	      0.00000000	      0.00000000	    -17.78719187	     -9.71485475	     11.69952723	     38.34207298	     44.24229253	      0.00000000	      0.00000000
     54.97200000	     -8.65631099	     -5.89293640	      1.97018099	      1.06997029	      0.91924371	      0.46778575	     -1.03075504	      0.13557207	    -16.10872460	     20.09409686	     20.09409686	     13.01712335	     10.57266928	    -13.50485028	     31.33938382	     -6.93711149	      0.13008967	     26.82680012	     26.82680012	      7.92987245	    -15.57835742	     11.37767985	     -8.45420753	      6.21501560	      5.41953112	     36.96870258	    -17.52409750	     -0.25682728	    100.80864843	     44.67503040	      0.00000000	      0.00000000	    -17.20593058	    -10.07431802	     11.70458609	     39.60128672	     44.36886167	      0.00000000	      0.00000000
